<svg width="20" height="20" viewBox="0 0 20 20" fill="none" xmlns="http://www.w3.org/2000/svg">
<path d="M10 19.35L8.55 18.05C6.86667 16.5333 5.475 15.225 4.375 14.125C3.275 13.025 2.4 12.0375 1.75 11.1625C1.1 10.2875 0.645833 9.48333 0.3875 8.75C0.129167 8.01667 0 7.26667 0 6.5C0 4.93333 0.525 3.625 1.575 2.575C2.625 1.525 3.93333 1 5.5 1C6.36667 1 7.19167 1.18333 7.975 1.55C8.75833 1.91667 9.43333 2.43333 10 3.1C10.5667 2.43333 11.2417 1.91667 12.025 1.55C12.8083 1.18333 13.6333 1 14.5 1C16.0667 1 17.375 1.525 18.425 2.575C19.475 3.625 20 4.93333 20 6.5C20 7.26667 19.8708 8.01667 19.6125 8.75C19.3542 9.48333 18.9 10.2875 18.25 11.1625C17.6 12.0375 16.725 13.025 15.625 14.125C14.525 15.225 13.1333 16.5333 11.45 18.05L10 19.35ZM10 16.65C11.6 15.2167 12.9167 13.9875 13.95 12.9625C14.9833 11.9375 15.8 11.0458 16.4 10.2875C17 9.52917 17.4167 8.85417 17.65 8.2625C17.8833 7.67083 18 7.08333 18 6.5C18 5.5 17.6667 4.66667 17 4C16.3333 3.33333 15.5 3 14.5 3C13.7167 3 12.9917 3.22083 12.325 3.6625C11.6583 4.10417 11.2 4.66667 10.95 5.35H9.05C8.8 4.66667 8.34167 4.10417 7.675 3.6625C7.00833 3.22083 6.28333 3 5.5 3C4.5 3 3.66667 3.33333 3 4C2.33333 4.66667 2 5.5 2 6.5C2 7.08333 2.11667 7.67083 2.35 8.2625C2.58333 8.85417 3 9.52917 3.6 10.2875C4.2 11.0458 5.01667 11.9375 6.05 12.9625C7.08333 13.9875 8.4 15.2167 10 16.65Z" fill="#FDE63A"/>
</svg>
