<svg width="20" height="20" viewBox="0 0 20 20" fill="none" xmlns="http://www.w3.org/2000/svg">
<path d="M10 19L8.69792 17.8362C6.96181 16.3017 5.52951 14.9871 4.40104 13.8922C3.27257 12.7974 2.38281 11.8233 1.73177 10.9698C1.08073 10.1164 0.62934 9.33621 0.377604 8.62931C0.125868 7.92241 0 7.19828 0 6.4569C0 4.92241 0.529514 3.62931 1.58854 2.57759C2.64757 1.52586 3.94965 1 5.49479 1C6.34549 1 7.17014 1.18103 7.96875 1.5431C8.76736 1.90517 9.44444 2.41379 10 3.06897C10.5556 2.41379 11.2326 1.90517 12.0312 1.5431C12.8299 1.18103 13.6545 1 14.5052 1C16.0503 1 17.3524 1.52586 18.4115 2.57759C19.4705 3.62931 20 4.92241 20 6.4569C20 7.19828 19.8785 7.91379 19.6354 8.60345C19.3924 9.2931 18.9453 10.0603 18.2943 10.9052C17.6432 11.75 16.7491 12.7284 15.612 13.8405C14.4748 14.9526 13.0208 16.3017 11.25 17.8879L10 19Z" fill="#FDE63A"/>
</svg>
