<svg width="127" height="27" viewBox="0 0 127 27" fill="none" xmlns="http://www.w3.org/2000/svg">
<path d="M16.7539 20.1362C14.8465 22.7265 12.9744 24.3665 11.8338 24.3665C8.74673 24.3665 1 12.2659 1 2C1 2 4.23085 3.96581 6.41689 3.96581C6.42728 3.96581 6.43769 3.96578 6.44813 3.96573C6.44933 4.00707 6.45093 4.05382 6.45305 4.10562C6.46237 4.33325 6.48177 4.65829 6.5221 5.04827C6.60274 5.82803 6.76715 6.86845 7.10243 7.90946C7.43755 8.94998 7.94439 9.99434 8.71206 10.7793C9.481 11.5655 10.5117 12.0911 11.889 12.0911C13.2337 12.0911 14.2074 12.6028 14.9143 13.372C15.6226 14.1428 16.0633 15.173 16.3353 16.2074C16.6072 17.2413 16.7097 18.2759 16.7441 19.0524C16.7613 19.4405 16.7615 19.7639 16.7574 19.9902C16.7564 20.0446 16.7552 20.0935 16.7539 20.1362Z" fill="#537EE4"/>
<path d="M16.8554 19.9975C16.8554 19.9956 16.8554 19.9936 16.8555 19.9916C16.8596 19.7639 16.8594 19.4389 16.8421 19.0489C16.8076 18.2691 16.7047 17.2287 16.4309 16.1875C16.1572 15.1469 15.712 14.1021 14.9902 13.3167C14.267 12.5296 13.2665 12.0038 11.889 12.0038C10.544 12.0038 9.53915 11.4919 8.78603 10.7219C8.03164 9.95053 7.5299 8.91987 7.19672 7.88537C6.8637 6.85137 6.70009 5.81677 6.61979 5.04026C6.57965 4.65212 6.56035 4.32871 6.55108 4.10243C6.549 4.05141 6.54742 4.00534 6.54622 3.96457C8.72797 3.92353 11.8338 2.87369 11.8338 2.87369C11.8338 2.87369 15.343 3.96581 17.6293 3.96581C19.9155 3.96581 23.3665 2 23.3665 2C23.3665 8.46011 20.0783 15.5665 16.8554 19.9975Z" fill="#FDE63A"/>
<path d="M16.7539 20.1362C14.8465 22.7265 12.9744 24.3665 11.8338 24.3665C8.74673 24.3665 1 12.2659 1 2C1 2 4.23085 3.96581 6.41689 3.96581C6.42728 3.96581 6.43769 3.96578 6.44813 3.96573C6.44933 4.00707 6.45093 4.05382 6.45305 4.10562C6.46237 4.33325 6.48177 4.65829 6.5221 5.04827C6.60274 5.82803 6.76715 6.86845 7.10243 7.90946C7.43755 8.94998 7.94439 9.99434 8.71206 10.7793C9.481 11.5655 10.5117 12.0911 11.889 12.0911C13.2337 12.0911 14.2074 12.6028 14.9143 13.372C15.6226 14.1428 16.0633 15.173 16.3353 16.2074C16.6072 17.2413 16.7097 18.2759 16.7441 19.0524C16.7613 19.4405 16.7615 19.7639 16.7574 19.9902C16.7564 20.0446 16.7552 20.0935 16.7539 20.1362Z" stroke="black" stroke-width="2"/>
<path d="M16.8554 19.9975C16.8554 19.9956 16.8554 19.9936 16.8555 19.9916C16.8596 19.7639 16.8594 19.4389 16.8421 19.0489C16.8076 18.2691 16.7047 17.2287 16.4309 16.1875C16.1572 15.1469 15.712 14.1021 14.9902 13.3167C14.267 12.5296 13.2665 12.0038 11.889 12.0038C10.544 12.0038 9.53915 11.4919 8.78603 10.7219C8.03164 9.95053 7.5299 8.91987 7.19672 7.88537C6.8637 6.85137 6.70009 5.81677 6.61979 5.04026C6.57965 4.65212 6.56035 4.32871 6.55108 4.10243C6.549 4.05141 6.54742 4.00534 6.54622 3.96457C8.72797 3.92353 11.8338 2.87369 11.8338 2.87369C11.8338 2.87369 15.343 3.96581 17.6293 3.96581C19.9155 3.96581 23.3665 2 23.3665 2C23.3665 8.46011 20.0783 15.5665 16.8554 19.9975Z" stroke="black" stroke-width="2"/>
<path d="M36.2643 14.0437H36.1481V21.6451H30.5693V4.15721H36.1481V11.2923H36.2643C36.2798 11.0125 36.3108 10.7638 36.3573 10.5461C36.4038 10.313 36.4658 10.1109 36.5433 9.93989L39.2629 4.15721H45.3066L41.1225 12.738L45.446 21.6451H39.4024L36.5433 15.3728C36.4658 15.2018 36.4038 15.0075 36.3573 14.7899C36.3108 14.5722 36.2798 14.3235 36.2643 14.0437Z" fill="black"/>
<path d="M47.1177 7.6548H49.907L51.3017 9.05383C53.0219 7.84134 54.8814 7.23509 56.8805 7.23509C58.1977 7.23509 59.2205 7.52267 59.9488 8.09783C60.6926 8.65744 61.0646 9.44245 61.0646 10.4529V21.6451H55.4858V11.8519H54.6257C53.9904 11.8519 53.51 11.9219 53.1846 12.0618C52.8591 12.1861 52.6964 12.4737 52.6964 12.9245V21.6451H47.1177V7.6548Z" fill="black"/>
<path d="M69.2901 21.6451H63.7114V8.35432L69.2901 7.6548V21.6451ZM63.4092 5.01995C63.4092 4.60024 63.4557 4.25048 63.5487 3.97068C63.6417 3.67532 63.8044 3.44215 64.0368 3.27116C64.2693 3.08462 64.5869 2.95249 64.9899 2.87476C65.3928 2.79704 65.9042 2.75818 66.524 2.75818C67.1439 2.75818 67.6475 2.79704 68.0349 2.87476C68.4378 2.95249 68.7555 3.08462 68.988 3.27116C69.2204 3.44215 69.3831 3.67532 69.4761 3.97068C69.5691 4.25048 69.6156 4.60024 69.6156 5.01995C69.6156 5.43966 69.5691 5.78942 69.4761 6.06923C69.3831 6.34903 69.2204 6.58221 68.988 6.76874C68.7555 6.93974 68.4378 7.0641 68.0349 7.14182C67.6475 7.204 67.1439 7.23509 66.524 7.23509C66.0746 7.23509 65.6562 7.21954 65.2688 7.18846C64.8969 7.15736 64.5714 7.07187 64.2925 6.93196C64.0136 6.77652 63.7966 6.55112 63.6417 6.25577C63.4867 5.96041 63.4092 5.54848 63.4092 5.01995Z" fill="black"/>
<path d="M71.3439 25.4225L72.0645 21.2487C73.6606 21.7928 75.5124 22.0649 77.62 22.0649C77.9299 22.0649 78.1933 22.0571 78.4103 22.0415C78.6427 22.0415 78.821 22.0338 78.9449 22.0182V21.0389C78.1081 21.0389 77.4263 21.0233 76.8994 20.9923C76.3725 20.9456 75.9773 20.8834 75.7139 20.8057C75.187 20.6658 74.8538 20.5259 74.7144 20.386C74.5439 20.2461 74.4432 20.1373 74.4122 20.0596C74.3812 19.9663 74.3657 19.8342 74.3657 19.6632L75.2025 17.2615C73.8698 17.0128 72.8548 16.5076 72.1574 15.7459C71.4601 14.9686 71.1114 13.7639 71.1114 12.1317C71.1114 10.515 71.6615 9.29478 72.7618 8.4709C73.8621 7.64703 75.6442 7.23509 78.1081 7.23509C78.5575 7.23509 78.9759 7.25063 79.3633 7.28172C79.7508 7.29727 80.1227 7.33613 80.4791 7.39831L82.9198 5.53293L85.8486 8.35432L84.2448 10.2197C84.4927 10.857 84.6167 11.6965 84.6167 12.738C84.6167 13.4686 84.5314 14.1059 84.361 14.65C84.1905 15.194 83.9038 15.6526 83.5009 16.0257C83.1135 16.3988 82.6021 16.6941 81.9668 16.9117C81.3314 17.1138 80.5411 17.2537 79.5958 17.3315L79.4796 18.0077C80.4868 18.0698 81.3391 18.1709 82.0365 18.3108C82.7338 18.4351 83.2995 18.6372 83.7334 18.917C84.1673 19.1968 84.4772 19.5544 84.6632 19.9896C84.8646 20.4249 84.9653 20.9767 84.9653 21.6451C84.9653 22.7644 84.7406 23.6349 84.2912 24.2567C83.8418 24.8785 83.253 25.337 82.5246 25.6324C81.8118 25.9277 80.9982 26.1065 80.0839 26.1687C79.1851 26.2309 78.2786 26.262 77.3643 26.262C75.5202 26.262 73.5134 25.9821 71.3439 25.4225ZM76.3648 12.1317V13.9505H77.2248C77.8912 13.9505 78.3793 13.8805 78.6892 13.7406C78.9992 13.6007 79.1541 13.282 79.1541 12.7846V10.9658H78.2708C77.6045 10.9658 77.1163 11.0358 76.8064 11.1757C76.512 11.3156 76.3648 11.6343 76.3648 12.1317Z" fill="black"/>
<path d="M92.6031 13.0178V21.6451H87.0243V3.4577L92.6031 3.03799V8.16778C93.7963 7.54599 95.1135 7.23509 96.5547 7.23509C98.0114 7.23509 99.1116 7.52267 99.8555 8.09783C100.599 8.65744 100.971 9.44245 100.971 10.4529V21.6451H95.3925V11.8519H94.5324C93.8506 11.8519 93.3547 11.9219 93.0447 12.0618C92.7503 12.2017 92.6031 12.5203 92.6031 13.0178Z" fill="black"/>
<path d="M104.176 11.269H102.781V7.6548H104.176V5.41634L109.755 4.01731V7.6548H111.684V11.269H109.755V17.6346C109.987 17.6812 110.243 17.7278 110.522 17.7745C110.801 17.8056 111.095 17.8289 111.405 17.8444L111.149 21.9483C108.608 21.9483 106.95 21.8084 106.175 21.5286C105.524 21.2954 105.028 21 104.687 20.6425C104.346 20.2694 104.176 19.7254 104.176 19.0103V11.269Z" fill="black"/>
<path d="M115.113 8.21441C116.306 7.56153 117.941 7.23509 120.018 7.23509C122.11 7.23509 124.024 7.52267 125.759 8.09783L125.108 11.8985C124.38 11.6809 123.66 11.5255 122.947 11.4322C122.234 11.3389 121.506 11.2923 120.762 11.2923C120.545 11.2923 120.274 11.3001 119.948 11.3156C119.638 11.3312 119.282 11.3622 118.879 11.4089V12.2949C119.731 12.2949 120.607 12.3416 121.506 12.4348C122.404 12.5126 123.218 12.7146 123.946 13.0411C124.69 13.352 125.294 13.8261 125.759 14.4634C126.24 15.0852 126.48 15.9402 126.48 17.0283C126.48 17.79 126.395 18.474 126.224 19.0802C126.054 19.6709 125.79 20.1451 125.434 20.5026C125.062 20.8601 124.675 21.1477 124.272 21.3653C123.884 21.583 123.373 21.7384 122.737 21.8317C122.242 21.9094 121.707 21.9638 121.134 21.9949C120.576 22.0415 119.971 22.0649 119.32 22.0649C117.042 22.0649 114.958 21.7928 113.068 21.2487L113.765 17.2848C114.555 17.518 115.369 17.6968 116.206 17.8211C117.042 17.9455 117.918 18.0077 118.832 18.0077C119.251 18.0077 119.646 17.9999 120.018 17.9843C120.405 17.9688 120.777 17.9377 121.134 17.8911V17.005C119.646 17.005 118.398 16.9117 117.391 16.7252C116.399 16.5231 115.594 16.22 114.974 15.8158C114.369 15.4117 113.935 14.8831 113.672 14.2303C113.424 13.5774 113.3 12.8001 113.3 11.8985C113.3 10.0953 113.904 8.8673 115.113 8.21441Z" fill="black"/>
</svg>
